<svg width="402" height="574" viewBox="0 0 402 574" fill="none" xmlns="http://www.w3.org/2000/svg">
<path d="M424.299 419.84C416.624 426.698 409.81 434.512 404.129 443.086C401.596 447.012 399.602 451.251 397.278 455.296C397.301 437.706 397.473 420.116 397.263 402.533C393.673 402.503 390.075 402.593 386.485 402.63C385.893 396.093 386.395 389.526 386.245 382.98C386.358 368.808 386.021 354.621 386.62 340.457C386.598 328.815 386.605 317.173 386.605 305.523C389.536 305.142 392.811 305.724 395.532 304.71C395.9 301.015 395.674 297.291 395.689 293.583C392.616 293.097 389.461 293.404 386.418 292.747C385.983 287.508 386.343 282.232 386.216 276.978C386.336 256.693 385.946 236.41 385.946 216.125C388.892 216.058 391.852 216.289 394.783 215.924C395.81 212.775 395.405 209.223 395.533 205.916C393.936 204.349 391.26 205.14 389.237 204.714C389.401 196.61 388.502 188.379 390.136 180.386C391.882 180.184 393.636 180.049 395.397 179.885C395.36 178.654 395.352 177.423 395.225 176.206C393.936 175.856 392.587 175.751 391.283 175.579C391.028 174.878 390.78 174.184 390.541 173.49C389.266 173.408 387.985 173.326 386.726 173.251C388.742 169.482 390.991 165.639 391.17 161.251C391.395 154.773 388.764 148.422 384.672 143.466C380.632 138.286 374.904 134.891 370.011 130.602C369.332 130.007 368.904 129.176 368.778 128.283C368.759 128.146 368.738 128.008 368.716 127.872C368.504 126.597 367.715 125.489 366.575 124.87C365.905 124.506 365.194 124.204 364.532 123.847C364.472 122.586 363.041 101.742 362.882 101.742C362.492 104.575 361.609 122.026 361.556 123.712C360.922 124.113 360.254 124.475 359.624 124.885C358.538 125.594 357.78 126.694 357.536 127.965C357.5 128.155 357.468 128.345 357.437 128.537C357.285 129.472 356.794 130.323 356.054 130.917C353.821 132.707 351.545 134.441 349.264 136.175C342.016 141.765 335.3 149.549 334.692 159.049C334.228 164.378 336.836 169.169 339.437 173.602C338.058 173.654 336.686 173.714 335.322 173.774C335.202 174.221 334.97 175.109 334.85 175.557C333.403 175.788 331.964 176.05 330.54 176.356C330.54 177.52 330.547 178.677 330.577 179.848C331.874 180.005 333.178 180.146 334.497 180.289C335.224 181.274 335.966 182.259 336.746 183.222C336.731 188.849 336.731 194.483 336.753 200.11C336.708 201.632 336.835 203.215 336.326 204.685C334.467 205.073 332.555 205.08 330.674 205.237C330.599 208.677 330.629 212.118 330.667 215.558C333.612 216.334 336.678 216.334 339.706 216.342C339.773 241.842 339.451 267.351 339.549 292.859C336.513 293.097 333.47 293.157 330.427 293.232C330.434 297.247 329.835 301.277 330.315 305.285C333.32 305.792 336.394 305.605 339.429 305.792C339.631 335.047 339.526 364.301 339.683 393.556C337.84 393.534 336.003 393.526 334.174 393.541C333.215 384.914 333.732 376.182 333.537 367.518C325.869 367.6 318.224 366.995 310.564 367.1C310.489 364.413 310.272 361.622 311.403 359.107C314.836 350.666 317.579 341.934 319.363 333.001C321.619 319.695 321.709 305.866 318.179 292.769C314.753 279.09 308.367 266.231 299.845 254.992C284.532 235.088 264.505 219.334 243.256 206.125C238.046 203.028 232.837 199.931 227.673 196.751C228.228 189.766 227.403 182.43 223.678 176.34C219.488 169.101 211.73 164.907 203.965 162.452C203.95 158.735 203.793 155.026 203.696 151.317C207.249 149.735 210.082 145.765 208.658 141.824C207.863 139.153 205.292 137.839 203.201 136.309C202.317 134.376 203.044 132.227 204.303 130.63C205.72 128.846 204.236 126.824 203.081 125.383C202.384 119.331 202.414 113.226 202.557 107.152C209.265 106.667 216.056 105.756 222.314 103.152C233.782 98.6518 243.684 89.9275 249.163 78.8975C243.197 82.8378 236.893 86.5246 229.855 88.1662C218.439 90.8825 205.922 89.1664 195.834 83.1063C184.208 76.6435 175.559 65.1804 172.501 52.2846C169.96 40.0605 171.662 26.7839 178.437 16.1421C182.439 9.48542 188.548 4.54485 194.732 0C179.674 1.95525 166.182 11.4481 158.117 24.0904C150.322 36.3071 147.901 51.7328 151.318 65.778C153.747 76.3755 160.036 85.7635 168.108 92.9427C176.727 100.271 187.296 105.749 198.727 106.742C198.652 112.511 198.322 118.279 197.895 124.033C197.767 125.899 196.178 127.317 196.148 129.212C195.968 130.638 197.123 131.653 197.872 132.72V136.168C195.316 137.914 192.506 140.101 192.183 143.422C192.041 147.086 195.062 149.616 197.835 151.474C197.452 155.266 197.34 159.079 197.295 162.9C190.04 164.624 183.054 168.4 178.632 174.505C174.277 180.811 172.553 188.901 173.797 196.431C158.664 205.185 143.659 214.342 130.242 225.596C121.675 232.156 113.805 239.648 106.962 247.984C97.81 258.455 90.682 270.657 85.8847 283.68C77.2728 307.322 78.8765 334.457 90.352 356.875C91.4913 360.137 90.8243 363.704 91.0266 367.1C83.4487 367.144 75.8708 367.018 68.2934 367.047C67.9633 375.973 68.3533 384.914 68.1661 393.847C65.9926 393.921 63.8261 393.959 61.6602 393.929C61.6976 375.346 61.6602 356.764 61.6752 338.181C61.765 327.531 61.4655 316.852 61.9448 306.217C64.9581 305.665 68.0462 305.814 71.0965 305.643C71.1339 301.65 71.1864 297.658 71.1564 293.665C68.0233 293.202 64.8602 293.202 61.7121 292.956C61.6897 267.395 61.7271 241.827 61.6597 216.267C64.6805 216.17 67.7232 216.088 70.7215 215.61C71.2837 212.118 71.089 208.565 71.089 205.05C69.0728 204.871 67.0491 204.759 65.033 204.684C64.6355 198.677 64.9056 192.661 64.8607 186.654C64.6884 184.333 65.8049 182.251 66.8544 180.281C68.2545 180.042 69.6849 180.057 71.1074 179.975C71.3411 178.116 71.2917 178.508 71.5258 176.649C70.2182 176.219 68.919 175.812 67.6039 175.437C67.2818 174.855 66.9668 174.281 66.6522 173.706C65.2132 173.616 63.7738 173.52 62.3497 173.407C64.3959 169.616 66.6971 165.75 66.8993 161.332C67.2069 154.81 64.4707 148.436 60.4309 143.421C56.2468 138.136 50.3191 134.7 45.407 130.176C44.9372 129.743 44.7069 129.129 44.6615 128.493C44.5187 126.5 43.0393 125.175 41.3292 124.232C40.6437 123.854 40.2177 123.139 40.1848 122.36C39.9885 117.697 39.347 103.7 38.7623 101.293C38.1776 104.211 38.3124 121.033 37.2484 123.279C36.6997 123.992 35.9612 124.514 35.2452 125.061C34.1977 125.861 33.4847 127.019 33.233 128.309L33.229 128.331C33.1137 128.922 32.8011 129.452 32.3373 129.837C28.8826 132.711 25.2278 135.782 21.853 138.682C15.9842 143.936 10.8424 150.959 10.6103 159.108C10.3332 164.325 12.5665 169.213 15.2198 173.572C13.256 173.631 11.0976 173.572 10.0855 175.572C8.93862 175.721 7.79919 175.878 6.66028 176.035C6.6453 177.251 6.63781 178.482 6.63032 179.714C8.17416 179.893 9.71849 180.072 11.2623 180.274C13.0688 184.177 12.0642 188.513 12.3868 192.647C12.6789 196.684 12.574 200.744 12.1396 204.782C10.2583 204.923 8.37688 205.072 6.50301 205.237C6.32326 208.715 6.06813 212.23 6.60038 215.685C9.62864 216.379 12.7692 216.207 15.8569 216.409C15.797 241.865 15.767 267.328 15.7595 292.784C12.559 292.963 9.35851 293.083 6.1505 293.239C6.03067 297.321 6.04565 301.404 6.06063 305.493C9.19374 305.605 12.3343 305.672 15.4749 305.822C15.9023 315.344 15.4899 324.882 15.6397 334.412C15.6846 357.129 15.7745 379.854 15.6322 402.57C11.8021 402.593 7.97945 402.578 4.15681 402.675C3.5946 420.616 4.18675 438.594 3.88717 456.542C1.63882 452.9 -0.0103531 448.922 -2.28916 445.303C-11.2161 431.004 -23.2987 418.869 -37 409.063V574H436V410.488C431.998 413.474 427.912 416.384 424.3 419.84H424.299ZM21.2608 204.244C19.4618 204.274 17.6703 204.259 15.8793 204.177C15.7295 197.445 15.752 190.707 15.8494 183.975C18.1507 181.646 21.3063 184.9 21.4636 187.393C21.471 193.005 21.4036 198.632 21.2613 204.244L21.2608 204.244ZM47.2544 204.439C41.7077 204.26 36.154 204.319 30.6072 204.207C30.4724 197.901 30.4425 191.58 30.6447 185.281C32.7882 182.58 35.9438 180.833 38.7623 178.886C41.7381 180.901 45.388 182.587 47.1495 185.856C47.3817 192.043 47.2918 198.244 47.2544 204.439ZM61.5478 204.14C59.644 204.192 57.7402 204.222 55.8364 204.207C55.7165 198.849 56.0236 193.498 56.0461 188.139C55.9487 185.803 57.8301 184.087 59.6815 182.99C62.3497 184.311 61.5928 187.289 61.6377 189.691C61.5329 194.513 61.7576 199.326 61.5478 204.14ZM345.576 204.281C343.807 204.296 342.038 204.274 340.284 204.237C340.172 197.49 339.894 190.707 340.374 183.982C342.36 181.811 345.246 184.9 345.486 187.012C345.838 192.759 345.598 198.528 345.576 204.281ZM371.36 204.491C365.828 204.297 360.289 204.61 354.772 204.2C354.772 197.879 354.412 191.528 354.885 185.237C357.306 182.826 360.064 180.602 363.122 179.065C365.288 180.125 367.237 181.587 369.111 183.094C370.1 184.035 371.292 185.117 371.292 186.602C371.404 192.557 371.367 198.528 371.359 204.49L371.36 204.491ZM380.429 188.169C380.212 185.303 383.307 182.229 386.028 184.221C386.05 190.886 385.983 197.55 385.946 204.214C384.162 204.334 382.378 204.341 380.602 204.326C380.084 198.961 380.489 193.55 380.429 188.169H380.429Z" fill="currentColor"/>
</svg>
